<svg width="150" height="96" fill="none" xmlns="http://www.w3.org/2000/svg"><path d="M69.357 2.508c2.505-2.534 8.39-2.534 10.895 0 2.1 2.124 6.753 2.543 9.724.876 3.543-1.989 9.189-.95 10.454 1.923 1.06 2.409 5.336 3.632 8.936 2.557 4.294-1.283 9.244.71 9.165 3.69-.065 2.498 3.487 4.427 7.424 4.03 4.699-.472 8.552 2.314 7.136 5.16-1.186 2.385 1.354 4.862 5.311 5.177 4.72.376 7.164 3.729 4.526 6.21-2.211 2.078-.886 4.904 2.768 5.905 4.359 1.193 5.196 4.841 1.55 6.756-3.056 1.605-3.056 4.55 0 6.155 3.646 1.914 2.809 5.563-1.55 6.756-3.654 1-4.979 3.826-2.768 5.905 2.638 2.481.194 5.834-4.526 6.21-3.957.314-6.497 2.792-5.311 5.177 1.416 2.846-2.437 5.632-7.136 5.159-3.937-.397-7.489 1.533-7.424 4.03.079 2.98-4.871 4.973-9.165 3.69-3.6-1.075-7.876.15-8.936 2.558-1.265 2.873-6.91 3.912-10.454 1.922-2.97-1.667-7.624-1.247-9.724.877-2.506 2.533-8.39 2.533-10.895 0-2.1-2.124-6.754-2.544-9.724-.877-3.544 1.99-9.19.951-10.454-1.922-1.06-2.409-5.336-3.633-8.936-2.557-4.295 1.282-9.244-.71-9.166-3.69.066-2.498-3.487-4.428-7.424-4.031-4.697.473-8.55-2.313-7.135-5.159 1.186-2.385-1.355-4.863-5.311-5.177-4.72-.376-7.164-3.729-4.526-6.21 2.21-2.079.886-4.905-2.768-5.905-4.36-1.193-5.197-4.842-1.55-6.756 3.056-1.605 3.056-4.55 0-6.155-3.647-1.915-2.81-5.563 1.55-6.756 3.654-1 4.979-3.827 2.768-5.906-2.638-2.48-.194-5.833 4.526-6.209 3.956-.315 6.497-2.792 5.311-5.177-1.415-2.846 2.438-5.632 7.135-5.16 3.937.397 7.49-1.532 7.424-4.03-.078-2.98 4.871-4.973 9.166-3.69 3.6 1.075 7.876-.148 8.936-2.557 1.265-2.873 6.91-3.912 10.454-1.923 2.97 1.667 7.623 1.248 9.724-.876Z" fill="#292E36"/></svg>