<svg width="15" height="12" fill="none" xmlns="http://www.w3.org/2000/svg"><path d="M2.521 10.58a4.968 4.968 0 0 0 1.837-1.372c.523-.614.838-1.24.945-1.878.06-.337.089-.626.089-.867 0-.276-.03-.505-.09-.686-.558.59-1.265.885-2.121.885-.856 0-1.551-.253-2.086-.758C.56 5.398.292 4.7.292 3.809c0-.843.286-1.529.856-2.058.559-.53 1.272-.795 2.14-.795 1.188 0 2.056.433 2.603 1.3.25.373.446.83.588 1.372.143.554.214 1.12.214 1.698 0 1.264-.32 2.42-.962 3.467-.642 1.047-1.6 1.866-2.871 2.456l-.339-.669Zm7.524 0a4.968 4.968 0 0 0 1.837-1.372c.523-.614.838-1.24.945-1.878.06-.337.089-.626.089-.867 0-.276-.03-.505-.09-.686-.558.59-1.265.885-2.12.885-.857 0-1.552-.253-2.087-.758-.535-.506-.802-1.204-.802-2.095 0-.843.285-1.529.855-2.058.56-.53 1.272-.795 2.14-.795 1.189 0 2.056.433 2.603 1.3.25.373.446.83.589 1.372.142.554.213 1.12.213 1.698 0 1.264-.32 2.42-.962 3.467-.642 1.047-1.599 1.866-2.87 2.456l-.34-.669Z" fill="#292E36"/></svg>