<svg width="151" height="96" fill="none" xmlns="http://www.w3.org/2000/svg"><path d="M69.835 2.508c2.52-2.534 8.44-2.534 10.96 0 2.114 2.124 6.795 2.543 9.783.876 3.565-1.989 9.245-.95 10.517 1.923 1.067 2.409 5.368 3.632 8.99 2.557 4.32-1.283 9.3.71 9.22 3.69-.065 2.498 3.508 4.427 7.469 4.03 4.727-.472 8.603 2.314 7.179 5.16-1.193 2.385 1.362 4.862 5.343 5.177 4.748.376 7.207 3.729 4.553 6.21-2.224 2.078-.892 4.904 2.785 5.905 4.385 1.193 5.228 4.841 1.56 6.756-3.075 1.605-3.075 4.55 0 6.155 3.668 1.914 2.825 5.563-1.56 6.756-3.677 1-5.009 3.826-2.785 5.905 2.654 2.481.195 5.834-4.553 6.21-3.981.314-6.536 2.792-5.343 5.177 1.424 2.846-2.452 5.632-7.179 5.159-3.961-.397-7.534 1.533-7.469 4.03.08 2.98-4.9 4.973-9.22 3.69-3.622-1.075-7.923.15-8.99 2.558-1.272 2.873-6.952 3.912-10.517 1.922-2.988-1.667-7.67-1.247-9.782.877-2.521 2.533-8.44 2.533-10.961 0-2.113-2.124-6.794-2.544-9.783-.877-3.565 1.99-9.244.951-10.517-1.922-1.066-2.409-5.368-3.633-8.99-2.557-4.32 1.282-9.3-.71-9.22-3.69.066-2.498-3.508-4.428-7.47-4.031-4.725.473-8.601-2.313-7.177-5.159 1.194-2.385-1.364-4.863-5.343-5.177-4.749-.376-7.207-3.729-4.554-6.21 2.225-2.079.892-4.905-2.784-5.905-4.386-1.193-5.228-4.842-1.56-6.756 3.075-1.605 3.075-4.55 0-6.155-3.668-1.915-2.826-5.563 1.56-6.756 3.676-1 5.009-3.827 2.784-5.906-2.653-2.48-.195-5.833 4.554-6.209 3.98-.315 6.537-2.792 5.343-5.177-1.424-2.846 2.452-5.632 7.178-5.16 3.96.397 7.535-1.532 7.469-4.03-.08-2.98 4.9-4.973 9.22-3.69 3.622 1.075 7.924-.148 8.99-2.557 1.273-2.873 6.952-3.912 10.517-1.923 2.989 1.667 7.67 1.248 9.783-.876Z" fill="#fff"/></svg>